HIERARCHY
ROOT hip
{
  OFFSET 0 90.174 2.4664
  CHANNELS 6 Xposition Yposition Zposition Zrotation Xrotation Yrotation
  JOINT abdomen
  {
    OFFSET 0 -1.186 -1.5018
    CHANNELS 6 Xposition Yposition Zposition Zrotation Xrotation Yrotation
    JOINT abdomen2
    {
      OFFSET 0 9.964 0.2134
      CHANNELS 6 Xposition Yposition Zposition Zrotation Xrotation Yrotation
      JOINT chest
      {
        OFFSET 0 13.134 -3.2573
        CHANNELS 6 Xposition Yposition Zposition Zrotation Xrotation Yrotation
        JOINT neck
        {
          OFFSET 0 20.686 -1.6905
          CHANNELS 6 Xposition Yposition Zposition Zrotation Xrotation Yrotation
          JOINT head
          {
            OFFSET 0 7.238 -0.1237
            CHANNELS 6 Xposition Yposition Zposition Zrotation Xrotation Yrotation
            End Site
            {
              OFFSET 0 0 0
            }
          }
        }
        JOINT lCollar
        {
          OFFSET 1.7069 20.075 5.0056
          CHANNELS 6 Xposition Yposition Zposition Zrotation Xrotation Yrotation
          JOINT lShldr
          {
            OFFSET 13.6458 -0.047 -4.849
            CHANNELS 6 Xposition Yposition Zposition Zrotation Xrotation Yrotation
            JOINT lForeArm
            {
              OFFSET 28.3255 -0.9759 2.2888
              CHANNELS 6 Xposition Yposition Zposition Zrotation Xrotation Yrotation
              JOINT lHand
              {
                OFFSET 22.1583 -0.53 10.8316
                CHANNELS 6 Xposition Yposition Zposition Zrotation Xrotation Yrotation
                JOINT lThumb1
                {
                  OFFSET 0.786 0.112 2.5817
                  CHANNELS 6 Xposition Yposition Zposition Zrotation Xrotation Yrotation
                  JOINT lThumb2
                  {
                    OFFSET 0.3601 -0.878 4.2331
                    CHANNELS 6 Xposition Yposition Zposition Zrotation Xrotation Yrotation
                    JOINT lThumb2_End
                    {
                      OFFSET 1.8127 -1.216 2.2227
                      CHANNELS 6 Xposition Yposition Zposition Zrotation Xrotation Yrotation
                      End Site
                      {
                        OFFSET 0.0181 -0.0122 0.0222
                      }
                    }
                  }
                }
                JOINT lCarpal1
                {
                  OFFSET 0.9571 1.114 1.7695
                  CHANNELS 6 Xposition Yposition Zposition Zrotation Xrotation Yrotation
                  JOINT lIndex1
                  {
                    OFFSET 4.1246 0.487 4.1451
                    CHANNELS 6 Xposition Yposition Zposition Zrotation Xrotation Yrotation
                    JOINT lIndex2
                    {
                      OFFSET 3.4052 -1.454 2.7682
                      CHANNELS 6 Xposition Yposition Zposition Zrotation Xrotation Yrotation
                      JOINT lIndex2_End
                      {
                        OFFSET 1.4531 -1.795 1.2713
                        CHANNELS 6 Xposition Yposition Zposition Zrotation Xrotation Yrotation
                        End Site
                        {
                          OFFSET 0.0145 -0.0179 0.0127
                        }
                      }
                    }
                  }
                  JOINT lMid1
                  {
                    OFFSET 5.6954 0.21 2.1184
                    CHANNELS 6 Xposition Yposition Zposition Zrotation Xrotation Yrotation
                    JOINT lMid2
                    {
                      OFFSET 3.9766 -1.54 2.3863
                      CHANNELS 6 Xposition Yposition Zposition Zrotation Xrotation Yrotation
                      JOINT lMid2_End
                      {
                        OFFSET 1.4042 -1.926 1.125
                        CHANNELS 6 Xposition Yposition Zposition Zrotation Xrotation Yrotation
                        End Site
                        {
                          OFFSET 0.014 -0.0193 0.0113
                        }
                      }
                    }
                  }
                }
                JOINT lCarpal2
                {
                  OFFSET 2.0956 0.66 -0.3894
                  CHANNELS 6 Xposition Yposition Zposition Zrotation Xrotation Yrotation
                  JOINT lRing1
                  {
                    OFFSET 5.0395 -0.09 2.4971
                    CHANNELS 6 Xposition Yposition Zposition Zrotation Xrotation Yrotation
                    JOINT lRing2
                    {
                      OFFSET 3.7921 -1.552 1.4806
                      CHANNELS 6 Xposition Yposition Zposition Zrotation Xrotation Yrotation
                      JOINT lRing2_End
                      {
                        OFFSET 1.4655 -1.808 0.9609
                        CHANNELS 6 Xposition Yposition Zposition Zrotation Xrotation Yrotation
                        End Site
                        {
                          OFFSET 0.0147 -0.0181 0.0096
                        }
                      }
                    }
                  }
                  JOINT lPinky1
                  {
                    OFFSET 4.9141 -1.269 0.3591
                    CHANNELS 6 Xposition Yposition Zposition Zrotation Xrotation Yrotation
                    JOINT lPinky2
                    {
                      OFFSET 3.1477 -1.685 0.8462
                      CHANNELS 6 Xposition Yposition Zposition Zrotation Xrotation Yrotation
                      JOINT lPinky2_End
                      {
                        OFFSET 0.8055 -1.585 0.7955
                        CHANNELS 6 Xposition Yposition Zposition Zrotation Xrotation Yrotation
                        End Site
                        {
                          OFFSET 0.0081 -0.0158 0.008
                        }
                      }
                    }
                  }
                }
              }
            }
          }
        }
        JOINT rCollar
        {
          OFFSET -1.7069 20.075 5.0056
          CHANNELS 6 Xposition Yposition Zposition Zrotation Xrotation Yrotation
          JOINT rShldr
          {
            OFFSET -13.6458 -0.047 -4.849
            CHANNELS 6 Xposition Yposition Zposition Zrotation Xrotation Yrotation
            JOINT rForeArm
            {
              OFFSET -28.3255 -0.9759 2.2888
              CHANNELS 6 Xposition Yposition Zposition Zrotation Xrotation Yrotation
              JOINT rHand
              {
                OFFSET -22.1583 -0.53 10.8316
                CHANNELS 6 Xposition Yposition Zposition Zrotation Xrotation Yrotation
                JOINT rThumb1
                {
                  OFFSET -0.786 0.112 2.5817
                  CHANNELS 6 Xposition Yposition Zposition Zrotation Xrotation Yrotation
                  JOINT rThumb2
                  {
                    OFFSET -0.3601 -0.878 4.2331
                    CHANNELS 6 Xposition Yposition Zposition Zrotation Xrotation Yrotation
                    JOINT rThumb2_End
                    {
                      OFFSET -1.8127 -1.216 2.2227
                      CHANNELS 6 Xposition Yposition Zposition Zrotation Xrotation Yrotation
                      End Site
                      {
                        OFFSET -0.0181 -0.0122 0.0222
                      }
                    }
                  }
                }
                JOINT rCarpal1
                {
                  OFFSET -0.9571 1.114 1.7695
                  CHANNELS 6 Xposition Yposition Zposition Zrotation Xrotation Yrotation
                  JOINT rIndex1
                  {
                    OFFSET -4.1246 0.487 4.1451
                    CHANNELS 6 Xposition Yposition Zposition Zrotation Xrotation Yrotation
                    JOINT rIndex2
                    {
                      OFFSET -3.4052 -1.454 2.7682
                      CHANNELS 6 Xposition Yposition Zposition Zrotation Xrotation Yrotation
                      JOINT rIndex2_End
                      {
                        OFFSET -1.4531 -1.795 1.2713
                        CHANNELS 6 Xposition Yposition Zposition Zrotation Xrotation Yrotation
                        End Site
                        {
                          OFFSET -0.0145 -0.018 0.0127
                        }
                      }
                    }
                  }
                  JOINT rMid1
                  {
                    OFFSET -5.6954 0.21 2.1184
                    CHANNELS 6 Xposition Yposition Zposition Zrotation Xrotation Yrotation
                    JOINT rMid2
                    {
                      OFFSET -3.9766 -1.54 2.3863
                      CHANNELS 6 Xposition Yposition Zposition Zrotation Xrotation Yrotation
                      JOINT rMid2_End
                      {
                        OFFSET -1.4042 -1.926 1.125
                        CHANNELS 6 Xposition Yposition Zposition Zrotation Xrotation Yrotation
                        End Site
                        {
                          OFFSET -0.014 -0.0193 0.0113
                        }
                      }
                    }
                  }
                }
                JOINT rCarpal2
                {
                  OFFSET -2.0956 0.66 -0.3894
                  CHANNELS 6 Xposition Yposition Zposition Zrotation Xrotation Yrotation
                  JOINT rRing1
                  {
                    OFFSET -5.0395 -0.09 2.4971
                    CHANNELS 6 Xposition Yposition Zposition Zrotation Xrotation Yrotation
                    JOINT rRing2
                    {
                      OFFSET -3.7921 -1.552 1.4806
                      CHANNELS 6 Xposition Yposition Zposition Zrotation Xrotation Yrotation
                      JOINT rRing2_End
                      {
                        OFFSET -1.4655 -1.808 0.9609
                        CHANNELS 6 Xposition Yposition Zposition Zrotation Xrotation Yrotation
                        End Site
                        {
                          OFFSET -0.0147 -0.0181 0.0096
                        }
                      }
                    }
                  }
                  JOINT rPinky1
                  {
                    OFFSET -4.9141 -1.269 0.3592
                    CHANNELS 6 Xposition Yposition Zposition Zrotation Xrotation Yrotation
                    JOINT rPinky2
                    {
                      OFFSET -3.1477 -1.685 0.8462
                      CHANNELS 6 Xposition Yposition Zposition Zrotation Xrotation Yrotation
                      JOINT rPinky2_End
                      {
                        OFFSET -0.8055 -1.585 0.7955
                        CHANNELS 6 Xposition Yposition Zposition Zrotation Xrotation Yrotation
                        End Site
                        {
                          OFFSET -0.0081 -0.0158 0.008
                        }
                      }
                    }
                  }
                }
              }
            }
          }
        }
      }
    }
  }
  JOINT lThigh
  {
    OFFSET 8.367 -8.2066 0.5982
    CHANNELS 6 Xposition Yposition Zposition Zrotation Xrotation Yrotation
    JOINT lShin
    {
      OFFSET 2.1923 -43.463 -0.4932
      CHANNELS 6 Xposition Yposition Zposition Zrotation Xrotation Yrotation
      JOINT lFoot
      {
        OFFSET 0.7333 -45.8593 -2.6451
        CHANNELS 6 Xposition Yposition Zposition Zrotation Xrotation Yrotation
        End Site
        {
          OFFSET 2.6618 -4.2699 12.3931
        }
      }
    }
  }
  JOINT rThigh
  {
    OFFSET -8.367 -8.2066 0.5982
    CHANNELS 6 Xposition Yposition Zposition Zrotation Xrotation Yrotation
    JOINT rShin
    {
      OFFSET -2.1923 -43.463 -0.4931
      CHANNELS 6 Xposition Yposition Zposition Zrotation Xrotation Yrotation
      JOINT rFoot
      {
        OFFSET -0.7333 -45.8593 -2.6451
        CHANNELS 6 Xposition Yposition Zposition Zrotation Xrotation Yrotation
        End Site
        {
          OFFSET -2.6618 -4.2699 12.3931
        }
      }
    }
  }
}
MOTION
Frames:	4
Frame Time:	0.0333333
0 90.174 2.4664 0 0 -0 0 -1.186 -1.5018 0 0 -0 0 9.964 0.2134 0 0 -0 0 13.134 -3.2573 0 0 -0 0 20.686 -1.6905 0 0 -0 0 7.238 -0.1237 0 0 -0 1.7069 20.075 5.0056 0 0 -0 13.6458 -0.047 -4.849 1.66051 0.0835086 5.75766 28.3255 -0.9759 2.2888 -0.0175111 0.895433 15.7816 22.1583 -0.53 10.8316 7.95139e-016 -1.98785e-016 -0 0.786 0.112 2.5817 5.46658e-016 -3.97569e-016 -0 0.3601 -0.878 4.2331 5.96354e-016 0 -0 1.8127 -1.216 2.2227 3.97569e-016 1.98785e-016 9.54166e-015 0.9571 1.114 1.7695 1.49089e-016 -3.97569e-016 -0 4.1246 0.487 4.1451 6.4605e-016 0 3.18055e-015 3.4052 -1.454 2.7682 5.96354e-016 0 3.18055e-015 1.4531 -1.795 1.2713 8.94531e-016 -1.98785e-016 6.36111e-015 5.6954 0.21 2.1184 6.4605e-016 0 3.18055e-015 3.9766 -1.54 2.3863 5.96354e-016 0 3.18055e-015 1.4042 -1.926 1.125 8.94531e-016 -1.98785e-016 6.36111e-015 2.0956 0.66 -0.3894 1.49089e-016 -3.97569e-016 -0 5.0395 -0.09 2.4971 6.4605e-016 0 3.18055e-015 3.7921 -1.552 1.4806 5.96354e-016 0 3.18055e-015 1.4655 -1.808 0.9609 8.94531e-016 -1.98785e-016 6.36111e-015 4.9141 -1.269 0.3591 6.4605e-016 0 3.18055e-015 3.1477 -1.685 0.8462 5.96354e-016 0 3.18055e-015 0.8055 -1.585 0.7955 8.94531e-016 -1.98785e-016 6.36111e-015 -1.7069 20.075 5.0056 0 0 -0 -13.6458 -0.047 -4.849 -1.4496 0.0636048 -5.0245 -28.3255 -0.9759 2.2888 -1.74811 1.20616 -16.8394 -22.1583 -0.53 10.8316 -1.19271e-015 1.98785e-016 -3.18055e-015 -0.786 0.112 2.5817 -3.97569e-016 1.98785e-016 -3.18055e-015 -0.3601 -0.878 4.2331 -2.98177e-016 1.98785e-016 -3.18055e-015 -1.8127 -1.216 2.2227 -2.98177e-016 3.97569e-016 -0 -0.9571 1.114 1.7695 4.96962e-016 0 -6.36111e-015 -4.1246 0.487 4.1451 -9.93923e-017 3.97569e-016 -0 -3.4052 -1.454 2.7682 -8.94531e-016 5.96354e-016 -0 -1.4531 -1.795 1.2713 -3.97569e-016 3.97569e-016 -0 -5.6954 0.21 2.1184 -9.93923e-017 3.97569e-016 -0 -3.9766 -1.54 2.3863 -8.94531e-016 5.96354e-016 -0 -1.4042 -1.926 1.125 -3.97569e-016 3.97569e-016 -0 -2.0956 0.66 -0.3894 4.96962e-016 0 -6.36111e-015 -5.0395 -0.09 2.4971 -9.93923e-017 3.97569e-016 -0 -3.7921 -1.552 1.4806 -8.94531e-016 5.96354e-016 -0 -1.4655 -1.808 0.9609 -3.97569e-016 3.97569e-016 -0 -4.9141 -1.269 0.3592 -9.93923e-017 3.97569e-016 -0 -3.1477 -1.685 0.8462 -8.94531e-016 5.96354e-016 -0 -0.8055 -1.585 0.7955 -3.97569e-016 3.97569e-016 -0 8.367 -8.2066 0.5982 -4.66115 -1.03232 0.120763 2.1923 -43.463 -0.4932 0.00990601 1.55097 0.177175 0.7333 -45.8593 -2.6451 4.65196 -0.54114 -0.255042 -8.367 -8.2066 0.5982 4.66115 -1.03222 -0.120763 -2.1923 -43.463 -0.4931 -0.00990459 1.5509 -0.177176 -0.7333 -45.8593 -2.6451 -4.65196 -0.541171 0.255041 
1.46085 80.9386 -10.1259 -10.364 -9.63283 132.457 8.88178e-016 -1.186 -1.5018 -0.804082 1.71468 -0.157595 0 9.964 0.2134 -1.60453 3.43146 -0.291311 0 13.134 -3.2573 -1.60454 3.43146 -0.29129 1.77636e-015 20.686 -1.6905 5.61016e-005 11.9147 -2.03092e-005 1.77636e-015 7.238 -0.1237 2.90022e-007 8.19973 -7.04719e-006 1.7069 20.075 5.0056 -22.2882 21.417 -13.9073 13.6458 -0.047 -4.849 -25.0046 -1.76039 27.0908 28.3255 -0.9759 2.2888 -11.9741 -20.3194 -26.6625 22.1583 -0.53 10.8316 -11.1579 4.36738 -3.62393 0.786 0.112 2.5817 4.77083e-015 0 -4.77083e-015 0.3601 -0.878 4.2331 3.18055e-015 9.54166e-015 -3.97569e-016 1.8127 -1.216 2.2227 1.59028e-015 -6.36111e-015 5.96354e-015 0.9571 1.114 1.7695 2.38542e-015 0 -3.57812e-015 4.1246 0.487 4.1451 -5.95877e-031 9.54166e-015 3.57812e-015 3.4052 -1.454 2.7682 3.18055e-015 -9.54166e-015 1.19271e-015 1.4531 -1.795 1.2713 3.18055e-015 3.18055e-015 -4.37326e-015 5.6954 0.21 2.1184 -5.95877e-031 9.54166e-015 3.57812e-015 3.9766 -1.54 2.3863 3.18055e-015 -9.54166e-015 1.19271e-015 1.4042 -1.926 1.125 3.18055e-015 3.18055e-015 -4.37326e-015 2.0956 0.66 -0.3894 2.38542e-015 0 -3.57812e-015 5.0395 -0.09 2.4971 -5.95877e-031 9.54166e-015 3.57812e-015 3.7921 -1.552 1.4806 3.18055e-015 -9.54166e-015 1.19271e-015 1.4655 -1.808 0.9609 3.18055e-015 3.18055e-015 -4.37326e-015 4.9141 -1.269 0.3591 -5.95877e-031 9.54166e-015 3.57812e-015 3.1477 -1.685 0.8462 3.18055e-015 -9.54166e-015 1.19271e-015 0.8055 -1.585 0.7955 3.18055e-015 3.18055e-015 -4.37326e-015 -1.7069 20.075 5.0056 24.8351 21.9282 13.3882 -13.6458 -0.047 -4.849 25.1652 -2.04356 -25.7733 -28.3255 -0.9759 2.2888 10.9759 -19.5708 24.2587 -22.1583 -0.53 10.8316 11.14 4.33026 3.70599 -0.786 0.112 2.5817 -6.79427e-007 1.26509e-006 -9.23094e-007 -0.3601 -0.878 4.2331 -7.81228e-006 -6.30414e-006 1.72956e-006 -1.8127 -1.216 2.2227 -5.22042e-007 4.95746e-006 4.13725e-006 -0.9571 1.114 1.7695 -0 -6.36111e-015 -0 -4.1246 0.487 4.1451 -6.79427e-007 1.26509e-006 -9.23094e-007 -3.4052 -1.454 2.7682 -7.81228e-006 -6.30414e-006 1.72956e-006 -1.4531 -1.795 1.2713 -5.22042e-007 4.95746e-006 4.13725e-006 -5.6954 0.21 2.1184 -6.79427e-007 1.26509e-006 -9.23094e-007 -3.9766 -1.54 2.3863 -7.81228e-006 -6.30414e-006 1.72956e-006 -1.4042 -1.926 1.125 -5.22042e-007 4.95746e-006 4.13725e-006 -2.0956 0.66 -0.3894 -0 -6.36111e-015 -0 -5.0395 -0.09 2.4971 -6.79427e-007 1.26509e-006 -9.23094e-007 -3.7921 -1.552 1.4806 -7.81228e-006 -6.30414e-006 1.72956e-006 -1.4655 -1.808 0.9609 -5.22042e-007 4.95746e-006 4.13725e-006 -4.9141 -1.269 0.3592 -6.79427e-007 1.26509e-006 -9.23094e-007 -3.1477 -1.685 0.8462 -7.81228e-006 -6.30414e-006 1.72956e-006 -0.8055 -1.585 0.7955 -5.22042e-007 4.95746e-006 4.13725e-006 8.367 -8.2066 0.5982 15.2983 -44.4178 20.7772 2.1923 -43.463 -0.4932 -8.49067 26.4066 10.6847 0.7333 -45.8593 -2.6451 -7.79401 2.44224 0.146795 -8.367 -8.2066 0.5982 -15.3175 -44.4217 -20.8077 -2.1923 -43.463 -0.4931 8.4912 26.4186 -10.6835 -0.7333 -45.8593 -2.6451 7.77547 2.42847 -0.144856 
-0.422071 76.5214 -14.485 4.86615 -19.6917 -165.82 0 -1.186 -1.5018 -1.15661 2.46687 -0.303778 0 9.964 0.2134 -2.30333 4.93926 -0.55836 0 13.134 -3.2573 -2.30333 4.93927 -0.558363 0 20.686 -1.6905 -2.37493e-007 16.9543 9.85461e-006 0 7.238 -0.1237 1.05215e-006 11.6327 -9.19487e-007 1.7069 20.075 5.0056 -28.2404 29.9529 -21.9476 13.6458 -0.047 -4.849 -36.7045 -2.42403 36.8292 28.3255 -0.9759 2.2888 -25.1998 -18.9865 -47.2701 22.1583 -0.53 10.8316 -16.2077 6.29916 -4.97514 0.786 0.112 2.5817 -7.95139e-016 3.18055e-015 -3.18055e-015 0.3601 -0.878 4.2331 -7.95139e-016 -1.59028e-015 3.18055e-015 1.8127 -1.216 2.2227 -5.1684e-015 -2.38542e-015 3.18055e-015 0.9571 1.114 1.7695 -7.95139e-016 3.18055e-015 -3.18055e-015 4.1246 0.487 4.1451 -1.19271e-015 -1.59028e-015 1.59028e-014 3.4052 -1.454 2.7682 -1.98785e-015 -7.95139e-016 -0 1.4531 -1.795 1.2713 -2.78299e-015 0 3.18055e-015 5.6954 0.21 2.1184 -1.19271e-015 -1.59028e-015 1.59028e-014 3.9766 -1.54 2.3863 -1.98785e-015 -7.95139e-016 -0 1.4042 -1.926 1.125 -2.78299e-015 0 3.18055e-015 2.0956 0.66 -0.3894 -7.95139e-016 3.18055e-015 -3.18055e-015 5.0395 -0.09 2.4971 -1.19271e-015 -1.59028e-015 1.59028e-014 3.7921 -1.552 1.4806 -1.98785e-015 -7.95139e-016 -0 1.4655 -1.808 0.9609 -2.78299e-015 0 3.18055e-015 4.9141 -1.269 0.3591 -1.19271e-015 -1.59028e-015 1.59028e-014 3.1477 -1.685 0.8462 -1.98785e-015 -7.95139e-016 -0 0.8055 -1.585 0.7955 -2.78299e-015 0 3.18055e-015 -1.7069 20.075 5.0056 31.9339 30.7379 21.2448 -13.6458 -0.047 -4.849 36.7944 -2.8086 -35.2636 -28.3255 -0.9759 2.2888 24.4109 -19.12 44.534 -22.1583 -0.53 10.8316 16.1819 6.25098 5.08941 -0.786 0.112 2.5817 1.59028e-015 3.18055e-015 -0 -0.3601 -0.878 4.2331 2.51907e-007 -5.80002e-007 -5.71383e-007 -1.8127 -1.216 2.2227 1.59028e-015 3.18055e-015 9.54166e-015 -0.9571 1.114 1.7695 3.18055e-015 0 -3.18055e-015 -4.1246 0.487 4.1451 0 6.36111e-015 -0 -3.4052 -1.454 2.7682 2.51907e-007 -5.80002e-007 -5.71383e-007 -1.4531 -1.795 1.2713 1.59028e-015 3.18055e-015 6.36111e-015 -5.6954 0.21 2.1184 0 6.36111e-015 -0 -3.9766 -1.54 2.3863 2.51907e-007 -5.80002e-007 -5.71383e-007 -1.4042 -1.926 1.125 1.59028e-015 3.18055e-015 6.36111e-015 -2.0956 0.66 -0.3894 3.18055e-015 0 -3.18055e-015 -5.0395 -0.09 2.4971 0 6.36111e-015 -0 -3.7921 -1.552 1.4806 2.51907e-007 -5.80002e-007 -5.71383e-007 -1.4655 -1.808 0.9609 1.59028e-015 3.18055e-015 6.36111e-015 -4.9141 -1.269 0.3592 0 6.36111e-015 -0 -3.1477 -1.685 0.8462 2.51907e-007 -5.80002e-007 -5.71383e-007 -0.8055 -1.585 0.7955 1.59028e-015 3.18055e-015 6.36111e-015 8.367 -8.2066 0.5982 42.4494 -58.8333 43.8697 2.1923 -43.463 -0.4932 -15.6812 37.5734 16.1145 0.7333 -45.8593 -2.6451 -13.3225 3.02746 1.60896 -8.367 -8.2066 0.5982 -42.4978 -58.8251 -43.9285 -2.1923 -43.463 -0.4931 15.684 37.5909 -16.1144 -0.7333 -45.8593 -2.6451 13.2948 3.00779 -1.60646 
-0.000618116 77.5405 -13.7203 0.00123701 -18.4425 -179.992 2.1684e-019 -1.186 -1.5018 -1.07905 2.25057 -0.269957 2.22045e-016 9.964 0.2134 -2.14996 4.50574 -0.49799 -8.88178e-016 13.134 -3.2573 -2.14996 4.50574 -0.49799 0 20.686 -1.6905 -2.67272e-005 15.1188 -9.74023e-006 0 7.238 -0.1237 -2.20788e-007 10.2989 -8.03449e-007 1.7069 20.075 5.0056 -26.6032 27.9873 -20.3646 13.6458 -0.047 -4.849 -34.5848 -2.49792 34.9439 28.3255 -0.9759 2.2888 -22.351 -19.7593 -43.1093 22.1583 -0.53 10.8316 -15.083 5.873 -4.68983 0.786 0.112 2.5817 -3.97569e-016 0 -6.36111e-015 0.3601 -0.878 4.2331 -4.48395e-006 5.86386e-007 -1.3947e-006 1.8127 -1.216 2.2227 4.30961e-006 -1.20202e-006 1.9552e-006 0.9571 1.114 1.7695 0 0 -6.36111e-015 4.1246 0.487 4.1451 -2.78299e-015 1.59028e-015 3.18055e-015 3.4052 -1.454 2.7682 -4.48395e-006 5.86386e-007 -1.3947e-006 1.4531 -1.795 1.2713 4.30961e-006 -1.20202e-006 1.9552e-006 5.6954 0.21 2.1184 -2.78299e-015 1.59028e-015 3.18055e-015 3.9766 -1.54 2.3863 -4.48395e-006 5.86386e-007 -1.3947e-006 1.4042 -1.926 1.125 4.30961e-006 -1.20202e-006 1.9552e-006 2.0956 0.66 -0.3894 0 0 -6.36111e-015 5.0395 -0.09 2.4971 -2.78299e-015 1.59028e-015 3.18055e-015 3.7921 -1.552 1.4806 -4.48395e-006 5.86386e-007 -1.3947e-006 1.4655 -1.808 0.9609 4.30961e-006 -1.20202e-006 1.9552e-006 4.9141 -1.269 0.3591 -2.78299e-015 1.59028e-015 3.18055e-015 3.1477 -1.685 0.8462 -4.48395e-006 5.86386e-007 -1.3947e-006 0.8055 -1.585 0.7955 4.30961e-006 -1.20202e-006 1.9552e-006 -1.7069 20.075 5.0056 30.0035 28.6894 19.7328 -13.6458 -0.047 -4.849 34.6676 -2.84129 -33.4558 -28.3255 -0.9759 2.2888 21.5021 -19.629 40.4665 -22.1583 -0.53 10.8316 15.0589 5.82699 4.79724 -0.786 0.112 2.5817 0 0 -6.36111e-015 -0.3601 -0.878 4.2331 -1.7808e-007 5.72307e-007 6.00414e-007 -1.8127 -1.216 2.2227 7.95139e-016 0 6.36111e-015 -0.9571 1.114 1.7695 0 0 -3.18055e-015 -4.1246 0.487 4.1451 -2.38542e-015 -1.59028e-015 -0 -3.4052 -1.454 2.7682 -1.7808e-007 5.72307e-007 6.00414e-007 -1.4531 -1.795 1.2713 -7.95139e-016 1.59028e-015 9.54166e-015 -5.6954 0.21 2.1184 -2.38542e-015 -1.59028e-015 -0 -3.9766 -1.54 2.3863 -1.7808e-007 5.72307e-007 6.00414e-007 -1.4042 -1.926 1.125 -7.95139e-016 1.59028e-015 9.54166e-015 -2.0956 0.66 -0.3894 0 0 -3.18055e-015 -5.0395 -0.09 2.4971 -2.38542e-015 -1.59028e-015 -0 -3.7921 -1.552 1.4806 -1.7808e-007 5.72307e-007 6.00414e-007 -1.4655 -1.808 0.9609 -7.95139e-016 1.59028e-015 9.54166e-015 -4.9141 -1.269 0.3592 -2.38542e-015 -1.59028e-015 -0 -3.1477 -1.685 0.8462 -1.7808e-007 5.72307e-007 6.00414e-007 -0.8055 -1.585 0.7955 -7.95139e-016 1.59028e-015 9.54166e-015 8.367 -8.2066 0.5982 34.3301 -55.8335 36.8591 2.1923 -43.463 -0.4932 -13.7543 35.1077 15.6411 0.7333 -45.8593 -2.6451 -12.0967 3.15948 0.348785 -8.367 -8.2066 0.5982 -34.3704 -55.8292 -36.9103 -2.1923 -43.463 -0.4931 13.7563 35.124 -15.6407 -0.7333 -45.8593 -2.6451 12.0714 3.14084 -0.346125 
